PathFileType	4	(X/Y/Z)	Patient4_TMGait_0pt7_02_left_17.trc.trc
DataRate	CameraRate	NumFrames	NumMarkers	Units	OrigDataRate	OrigDataStartFrame	OrigNumFrames
86.419753086420	86.419753086420	5	33	mm	86.419753086420	124	       141
Frame#	Time	Sacral			L.Shoulder			Chest			R.Shoulder			Neck			R.ASIS			L.ASIS			R.Thigh.Superior			R.Thigh.Lateral			R.Thigh.Inferior			R.Patella			L.Thigh.Superior			L.Thigh.Lateral			L.Thigh.Inferior			L.Patella			L.Shank.Superior			L.Shank.Lateral			L.Shank.Inferior			R.Shank.Superior			R.Shank.Lateral			R.Shank.Inferior			R.Heel			R.Midfoot.Superior			R.Midfoot.Lateral			R.Toe			L.Heel			L.Midfoot.Lateral			L.Midfoot.Superior			L.Toe			L.Elbow			L.Wrist			R.Elbow			R.Wrist			
		X1	Y1	Z1	X2	Y2	Z2	X3	Y3	Z3	X4	Y4	Z4	X5	Y5	Z5	X6	Y6	Z6	X7	Y7	Z7	X8	Y8	Z8	X9	Y9	Z9	X10	Y10	Z10	X11	Y11	Z11	X12	Y12	Z12	X13	Y13	Z13	X14	Y14	Z14	X15	Y15	Z15	X16	Y16	Z16	X17	Y17	Z17	X18	Y18	Z18	X19	Y19	Z19	X20	Y20	Z20	X21	Y21	Z21	X22	Y22	Z22	X23	Y23	Z23	X24	Y24	Z24	X25	Y25	Z25	X26	Y26	Z26	X27	Y27	Z27	X28	Y28	Z28	X29	Y29	Z29	X30	Y30	Z30	X31	Y31	Z31	X32	Y32	Z32	X33	Y33	Z33	

124	20.613285714286	816.826783513135	1008.817049335174	491.579909174085	1005.510038127779	1411.206371772057	283.136917543563	1124.362174833942	1335.635763445522	430.023855497388	1076.546123788029	1426.582263252177	606.539484093113	1036.076077761338	1475.896494742169	433.377200816282	1042.110305458349	927.285434435777	596.209889138410	1015.666026469840	941.878186444234	322.026024274459	1028.147297312749	714.150856638957	574.891903331901	919.504310429838	628.673165886941	640.325009737011	975.622046347283	557.339374541347	561.784837570066	952.794877992219	474.951205625989	567.494564408734	1095.645413775789	772.099629527971	365.522109400111	1057.999723313889	644.527532544828	282.181480092684	1159.804549245289	588.781130963133	349.214634860748	1183.976409562604	518.100426034715	346.500293261228	1163.501809273150	442.391905184565	331.766801938084	1091.107371423105	319.568678216079	272.720975911478	1165.033901965236	213.051741946653	332.187530802098	912.219979412652	392.905883215393	577.416346600314	826.850548250514	302.973217338399	642.470324040504	851.850932979205	201.661570635917	580.555509111552	697.665640238344	45.267041963592	555.706116458895	869.646596250682	96.283324082569	590.447899112898	780.569534857573	37.694230780428	630.075592336351	989.099340114268	39.605602831588	620.434497287559	1065.372872162417	41.773913408338	357.183766784396	1145.485188497034	44.408121634201	282.825042759442	1218.414753892103	115.597387410297	313.687645699630	1352.332397304357	77.823979503178	296.579120115324	824.265619505897	1103.891003070185	216.907962767137	775.917861724937	849.001303016870	247.376665092606	1264.167710030585	1156.048598813329	695.759198305557	1387.715992585954	1324.275809188554	565.760862809617	
125	20.624857142857	817.874157783094	1006.792590106733	487.842076259176	1005.495492565935	1409.783273588438	279.723651061248	1123.823278766800	1335.177221837191	427.500160649780	1073.959478758390	1425.844128332806	603.753474721065	1034.628703135068	1474.847980027086	430.121330213125	1043.131999247397	925.969212141082	593.813964163123	1017.800677909003	939.906807488767	319.724027190850	1028.885813154684	712.605392959352	573.070326562339	919.207069008032	627.626496536510	638.163806515503	975.272501753792	555.662303960130	560.187745164900	951.574302939153	472.756832890931	565.698815365377	1096.211101372252	767.298873257021	361.994288677864	1054.900450187792	640.526691371988	279.966634575781	1156.432108837224	583.707762222955	347.002872800451	1179.111513481529	512.912216046075	344.833384057128	1158.465115116118	437.473578046305	330.220439846265	1085.189390703214	314.836785966322	271.874694512366	1158.369857754259	208.246061798359	332.099731918549	909.579455262560	391.303528204706	575.874786460401	822.810561766431	303.041012364043	641.542958539566	845.884538520633	201.168493121900	579.994668806386	689.567791384077	46.216642999432	555.942505718251	861.836586872609	96.358450839406	590.428900906596	772.543318577575	38.141832550928	630.248314316655	981.041859225181	39.334625831086	620.533059967228	1056.595953338886	39.163068805446	357.947137255217	1136.695533412315	40.254318147577	283.358350136970	1210.848307859395	109.976278058559	314.300079465735	1344.307857772847	69.593457145125	297.306198647467	824.611062888566	1102.523891741809	213.772806639718	775.001173114782	847.939153371804	245.515893496487	1263.684338659759	1156.813259399138	693.179441188200	1382.116363093688	1328.002181073787	562.329595499381	
126	20.636428571429	818.779896818518	1005.040217340937	484.242186609614	1005.568637969800	1408.545006585072	276.231137595740	1123.351863130350	1334.804173180056	424.868894438316	1071.635995188038	1425.271081442376	600.906589185364	1033.401352901007	1474.023911851011	426.727059900627	1044.048566766050	924.852263017083	591.240156020058	1019.582280077252	938.438704920213	317.251009296971	1029.933561486297	711.311854594189	570.991894653257	919.497535259144	626.628590539092	635.812790133951	975.672058888376	554.125084546165	558.364362959380	951.256186111790	470.453323879840	563.778809149057	1096.767501529777	763.604935243745	358.249737640289	1052.317006058754	637.587067010560	277.548044264540	1153.570536823807	579.886020093064	344.623562441551	1174.996507923358	508.900053205520	342.952822734876	1154.158108157247	433.584181266057	328.578630672385	1080.000733948607	311.243049067660	270.664983429137	1152.104424530495	204.467937675651	331.807443361490	907.654859046773	389.716088782179	574.203523170393	819.319870646212	303.320858506483	640.519419085114	840.300442636658	200.864587029848	579.395360682423	681.547178041850	47.720578044542	556.248353679667	854.252115062221	96.523535049772	590.424712176820	764.602933750500	38.885824865824	630.438053309683	973.036528067000	39.026542522742	620.623876003964	1047.978903434269	37.440101225556	358.384488327352	1128.112542921574	37.153780596997	283.632932460039	1203.421181921612	105.440908121081	314.766621621900	1336.427773987543	62.615484619268	297.956766970341	825.875093679638	1100.687109850049	210.414417146653	775.069657619500	846.381212454351	243.149915015042	1262.225042807324	1156.648631739962	691.044311825889	1376.547833309517	1330.147960487077	559.382994103336	
127	20.648000000000	819.518424248448	1003.643307071054	480.797006185493	1005.685350562291	1407.580994223233	272.722243727392	1122.935126126895	1334.566115300484	422.153389590875	1069.653714954198	1424.925804988150	598.020544539431	1032.414638405769	1473.492214478939	423.260838044164	1044.799893608134	924.036078116356	588.477009704475	1020.970259874238	937.548974106526	314.550754201115	1031.200884458276	710.363877090040	568.637228913876	920.358628677443	625.737783685174	633.307557115847	976.836185596923	552.804170820514	556.355254029580	951.906613125727	468.096882479780	561.861417589979	1097.376005753026	761.222252905101	354.367880581742	1050.365712175451	635.771179154711	274.990643557443	1151.311691096297	577.344948190070	342.047460544026	1171.711180806952	506.078872371208	340.865200865100	1150.633056135453	430.735315936865	326.886282488522	1075.567433549801	308.813497699377	269.143859896277	1146.246050838462	201.727874932345	331.341112837666	906.482832720956	388.218394635084	572.492897828636	816.393809129201	303.898803961306	639.430295933580	835.152942011545	200.837226572957	578.798329256303	673.657106165658	49.924349616388	556.608175157598	846.962543777478	96.806048692782	590.450614702305	756.779059175425	40.017729562755	630.637378419617	965.087231383297	38.690072394795	620.695179783080	1039.597179511021	36.504810192955	358.545815951878	1119.786743863700	35.082834359910	283.685511335902	1196.120422870335	102.060076775189	315.080174168129	1328.699969301257	57.127930832373	298.465664327432	828.027105783250	1098.488355605609	206.842421334639	776.202988424262	844.392766920721	240.231601235842	1259.785284608108	1155.558661426056	689.363938591052	1371.127338620515	1330.701441757415	556.885155309079	
128	20.659571428571	820.081376233626	1002.656689731438	477.484181409253	1005.793126127363	1406.961674437965	269.254724881588	1122.549390422160	1334.510188177571	419.381440952653	1068.043730115721	1424.856161697799	595.118146508751	1031.657659623346	1473.301070753148	419.794773650563	1045.345836264335	923.607086859972	585.524561016604	1021.981565208654	937.257077837095	311.580032290699	1032.619896506307	709.835606338325	566.021361812391	921.773805503994	625.002045080094	630.694737442083	978.783665873973	551.764387501232	554.222709915203	953.585061175378	465.749161074993	560.092476301247	1098.094225307189	760.173238730181	350.421945298894	1049.026863998368	634.971027519184	272.384961837972	1149.633630741532	575.927961870857	339.270740081927	1169.195597417236	504.307689254930	338.628532593999	1147.805150215281	428.810592907775	325.208425773165	1071.778123151083	307.434581080338	267.421785851000	1140.716776579733	199.915696722977	330.760587797359	906.098855859249	386.878412766409	570.842042272028	814.052129115737	304.857516153030	638.305215008821	830.504112375174	201.169383363157	578.243505670241	665.971103813764	52.968215794050	556.986668169552	840.038986942775	97.235862052769	590.516644672063	749.109608499263	41.634898458427	630.828104718709	957.194618730383	38.336988001456	620.735438317251	1031.455620219623	36.192284976447	358.497267763136	1111.703809663335	33.914858763660	283.570226857602	1188.889071501975	99.768692340141	315.259709927978	1321.086090062481	53.171811905955	298.805623337151	830.998772619515	1096.057882804491	203.067783659521	778.480470036961	842.060541152809	236.725114564302	1256.341431515457	1153.594283722361	688.131363076647	1365.966252714349	1329.647689367540	554.796551298307	
